<?xml version="1.0" encoding="utf-8"?>
<!-- Generator: $$$/GeneralStr/196=Adobe Illustrator 27.6.0, SVG Export Plug-In . SVG Version: 6.00 Build 0)  -->
<svg version="1.1" id="Ebene_1" xmlns="http://www.w3.org/2000/svg" xmlns:xlink="http://www.w3.org/1999/xlink" x="0px" y="0px"
	 viewBox="0 0 601 215" style="enable-background:new 0 0 601 215;" xml:space="preserve">
<style type="text/css">
	.st0{display:none;stroke:#FFFFFF;}
	.st1{fill:#FFFFFF;}
</style>
<rect x="-124.51" y="-189.79" class="st0" width="845.44" height="594.86"/>
<g>
	<g>
		<g>
			<path class="st1" d="M429.95,130.46V67.2c-9.38-4.81-15.4-6.5-22.37-6.5c-17.08,0-26.46,14.19-26.46,40.65
				c0,28.38,6.25,40.41,20.93,40.41C410.71,141.77,417.92,138.89,429.95,130.46z M447.51,80.13l0,35.43c0,12.99,0,18.76,0.48,26.22
				l0.72,13.47c0.24,5.29,0.48,9.86,0.48,13.23c0,27.18-14.43,41.62-41.62,41.62c-12.99,0-27.66-4.09-38.01-10.34
				c-1.2-0.48-1.44-1.2-1.44-2.4v-0.72c0,0,0.24-0.24,0.48-0.72l4.09-9.38c0.48-0.96,0.96-1.44,1.68-1.44c0.24,0,1.2,0.24,1.68,0.72
				c10.34,5.29,21.89,8.66,30.55,8.66c17.8,0,25.02-7.22,25.02-25.74c0-3.61-0.24-7.46-0.24-11.79c-0.24-5.77-0.48-8.9-0.48-9.62
				v-2.41c-10.83,8.9-20.93,12.75-32.47,12.75c-22.37,0-36.33-19.73-36.33-51.72c0-38.97,15.88-60.62,44.26-60.62
				c8.94,0,15.43,1.71,23.64,6.59v-3.92c0-2.17,0.48-2.65,2.65-2.65h12.03c1.92,0,2.89,0.48,2.89,1.68v0.96L447.51,80.13z"/>
			<path class="st1" d="M483.76,57.08c11.39-8.43,20.08-11.77,30.38-11.77c11.06,0,18.27,4.33,22.36,13.71
				c13.95-9.86,23.33-13.71,34.15-13.71c17.8,0,25.26,9.62,25.26,32.96v79.86c0,2.17-0.48,2.65-2.65,2.65h-12.03
				c-2.4,0-2.89-0.48-2.89-2.65V77.55c0-11.79-4.57-17.08-14.92-17.08c-7.45,0-13.23,2.16-23.81,9.38v88.28v0.96
				c0,1.2-0.72,1.68-2.64,1.68h-12.02c-2.16,0-2.65-0.48-2.65-2.65V77.79c0-11.55-5.05-17.32-15.15-17.32
				c-7.46,0-13.95,2.65-23.33,9.86v87.8c0,2.17-0.48,2.65-2.64,2.65h-12.03c-1.92,0-2.88-0.48-2.88-1.68v-0.96V74.14l-0.06-26.35
				c0-2.17,0.48-2.65,2.65-2.65h12.02c1.92,0,2.89,0.48,2.89,1.68v0.96L483.76,57.08z"/>
			<path class="st1" d="M234.6,57.28c11.39-8.43,20.09-11.77,30.39-11.77c11.07,0,18.28,4.33,22.38,13.71
				c13.95-9.86,23.33-13.71,34.16-13.71c17.8,0,25.26,9.62,25.26,32.96v79.86c0,2.16-0.48,2.65-2.65,2.65h-12.03
				c-2.41,0-2.89-0.48-2.89-2.65V77.74c0-11.79-4.57-17.08-14.91-17.08c-7.46,0-13.23,2.17-23.81,9.38v88.28v0.96
				c0,1.2-0.72,1.68-2.65,1.68h-12.03c-2.17,0-2.65-0.48-2.65-2.65V77.98c0-11.55-5.05-17.32-15.15-17.32
				c-7.46,0-13.95,2.65-23.33,9.86v87.8c0,2.16-0.48,2.65-2.65,2.65h-12.03c-1.93,0-2.89-0.48-2.89-1.68v-0.96V74.34l-0.06-26.35
				c0-2.17,0.48-2.65,2.65-2.65h12.03c1.92,0,2.89,0.48,2.89,1.68v0.96L234.6,57.28z"/>
		</g>
	</g>
	<path class="st1" d="M111.96,138.13c0-1.29-0.72-2.01-2.01-2.01c-60.52,0-63.14,0-70.83,0c-7.69,0-10.72-5-10.72-11.14
		c0-6.15,0-77.54,0-77.54c0-1.29-0.71-2.01-2-2.01l-20.42,0c-1.3,0-2.01,0.72-2.01,2.01c0,60.52,0,67.28,0,72.94l0.02,0v12.74
		c0,18.07,8.19,27.42,27.53,27.42c2.64,0,78.43,0,78.43,0c1.29,0,2.01-0.71,2.01-2L111.96,138.13z"/>
	<path class="st1" d="M46.25,27.61c0,1.3,0.72,2.01,2.01,2.01c60.52,0,63.13,0,70.82,0c7.69,0,10.72,5,10.72,11.14
		c0,6.15,0,77.53,0,77.53c0,1.29,0.71,2.02,2,2.02l20.42-0.01c1.3,0,2.01-0.72,2.01-2.01c0-60.52,0-67.27,0-72.94l-0.02,0V32.62
		c0-18.08-8.19-27.42-27.53-27.42c-2.64,0-78.43,0-78.43,0c-1.29,0-2.01,0.71-2.01,2L46.25,27.61z"/>
</g>
</svg>
